<svg width="52" height="25" viewBox="0 0 52 25" fill="none" xmlns="http://www.w3.org/2000/svg">
<path fill-rule="evenodd" clip-rule="evenodd" d="M11.3635 3.61571C12.0361 2.82355 12.4892 1.72064 12.3651 0.623291C11.3955 0.661391 10.2233 1.25194 9.52819 2.04409C8.90495 2.74497 8.35912 3.86733 8.50683 4.94285C9.58743 5.02421 10.6909 4.40826 11.3635 3.61571ZM13.7874 10.5797C13.8137 13.3594 16.2426 14.3215 16.3669 14.3707L16.3716 14.3726L16.3686 14.3822C16.3262 14.5179 15.939 15.7586 15.039 17.0384C14.236 18.1802 13.4031 19.3177 12.0906 19.3415C11.4608 19.3527 11.0397 19.1754 10.602 18.9911C10.1435 18.7981 9.66667 18.5973 8.91245 18.5973C8.12355 18.5973 7.62483 18.804 7.14431 19.0031C6.72752 19.1759 6.32443 19.3429 5.75756 19.3645C4.49094 19.4113 3.52607 18.1302 2.7172 16.9924C1.06352 14.6655 -0.200329 10.417 1.49679 7.5492C2.33962 6.12522 3.84677 5.22353 5.48188 5.19972C6.18655 5.1869 6.8689 5.45034 7.46636 5.68101C7.92304 5.85733 8.33013 6.0145 8.65968 6.0145C8.95476 6.0145 9.35036 5.86262 9.81175 5.68548C10.5386 5.40644 11.4286 5.06472 12.3462 5.15527C12.9742 5.18067 14.7364 5.40212 15.868 7.01461L15.8626 7.0178C15.716 7.10352 13.7652 8.24442 13.7874 10.5797ZM22.7455 2.03131C22.1937 2.09186 21.6438 2.16782 21.0962 2.25911V19.1012H22.3079V11.8178C22.8577 11.9356 23.5354 11.9944 24.3427 11.9944C25.2361 11.9944 26.0604 11.8849 26.8159 11.6658C27.5723 11.4467 28.2247 11.1137 28.7749 10.6669C29.3258 10.219 29.7703 9.65315 30.0759 9.0107C30.3934 8.35269 30.5526 7.58593 30.5526 6.70964C30.5526 5.98495 30.4365 5.344 30.205 4.78758C29.9835 4.24622 29.6547 3.7558 29.2386 3.34614C28.7579 2.89053 28.1438 2.54089 27.3965 2.29681C26.6493 2.05234 25.7606 1.9301 24.7298 1.9301C24.067 1.92702 23.4046 1.9608 22.7455 2.03131ZM22.3081 10.7568C22.6004 10.8401 22.9262 10.8996 23.2876 10.933C23.6478 10.9667 24.0341 10.9834 24.4464 10.9834C25.9922 10.9834 27.1905 10.6294 28.0405 9.92134C28.8908 9.21372 29.3162 8.17709 29.3162 6.81145C29.3162 6.15383 29.204 5.58115 28.9805 5.0914C28.7686 4.61676 28.441 4.20355 28.0278 3.89007C27.6159 3.57813 27.1262 3.34239 26.5594 3.18205C25.9926 3.02132 25.3654 2.94115 24.6782 2.94115C24.1292 2.94115 23.6565 2.96219 23.2611 3.00465C22.8662 3.04632 22.5482 3.09276 22.3081 3.14356V10.7568ZM40.2101 17.686C40.1931 17.1971 40.1845 16.7082 40.1845 16.2192L40.186 11.4393C40.186 10.8829 40.1304 10.3225 40.019 9.75733C39.9141 9.20947 39.6991 8.68887 39.387 8.22739C39.0778 7.77257 38.6532 7.4011 38.1121 7.11535C37.571 6.82841 36.8704 6.68554 36.011 6.68554C35.3935 6.68324 34.7785 6.76412 34.1823 6.92604C33.5986 7.08638 33.031 7.35189 32.4821 7.72217L32.8691 8.60799C33.3105 8.31535 33.7922 8.08938 34.2989 7.93727C34.8226 7.77734 35.3506 7.69717 35.8826 7.69717C36.5872 7.69717 37.1457 7.82377 37.558 8.07658C37.9703 8.32978 38.2792 8.64133 38.4854 9.0124C38.6888 9.37658 38.824 9.77515 38.8843 10.1883C38.9409 10.5525 38.9712 10.9203 38.9751 11.2889V11.6175C36.5011 11.5829 34.6504 11.9544 33.4221 12.7299C32.1937 13.5058 31.5796 14.6099 31.5796 16.0426C31.581 16.4571 31.6549 16.8682 31.798 17.257C31.9411 17.6567 32.1647 18.0225 32.4548 18.3314C32.7463 18.6437 33.1203 18.8965 33.5757 19.0902C34.0311 19.2839 34.5595 19.3807 35.1606 19.3807C35.6413 19.3807 36.0836 19.322 36.4877 19.2041C36.8913 19.0862 37.2523 18.9302 37.5699 18.7358C37.8724 18.5533 38.1533 18.337 38.4072 18.0909C38.6292 17.8768 38.8278 17.6394 38.9996 17.3828H39.0509L39.2314 19.1029H40.365C40.2792 18.6465 40.2275 18.175 40.2101 17.686ZM38.9736 12.6033C38.2898 12.5873 37.6057 12.6125 36.9249 12.6787C36.2125 12.7462 35.5552 12.8942 34.9541 13.1216C34.353 13.3494 33.8546 13.6824 33.4596 14.1206C33.0647 14.5595 32.8672 15.1405 32.8672 15.866C32.8672 16.7256 33.116 17.3582 33.6137 17.763C34.1113 18.1679 34.6698 18.3703 35.2883 18.3703C35.7867 18.3703 36.233 18.3028 36.6279 18.1679C37.0229 18.0329 37.3665 17.8512 37.6588 17.6241C37.9413 17.4063 38.1888 17.1461 38.3926 16.8526C38.583 16.58 38.7349 16.2821 38.844 15.9676C38.9301 15.6303 38.9728 15.385 38.9732 15.2334L38.9736 12.6033ZM45.6965 14.8541L42.5535 6.96304L41.2651 6.96265L45.7222 18.2179C45.8257 18.4541 45.877 18.6311 45.877 18.749C45.877 18.8335 45.8249 19.0101 45.7222 19.28C45.4299 19.9884 45.0994 20.5912 44.7301 21.0889C44.3608 21.5862 44.0215 21.9866 43.7123 22.2903C43.3517 22.6443 42.9824 22.9308 42.604 23.1499C42.2265 23.369 41.8828 23.546 41.5732 23.6809L41.9859 24.6671C42.1234 24.6167 42.3943 24.4945 42.7972 24.3C43.2012 24.1059 43.6436 23.7984 44.1242 23.3769C44.5473 23.0117 44.924 22.5956 45.2459 22.1379C45.5808 21.6656 45.9114 21.1219 46.2372 20.5067C46.5916 19.8311 46.914 19.1389 47.2033 18.4327C47.5541 17.5817 47.8935 16.7261 48.2215 15.8661L51.8025 6.96304H50.5142L47.5765 14.8029C47.3877 15.2918 47.2159 15.7688 47.0619 16.2324C46.9075 16.6959 46.77 17.1131 46.6495 17.4845H46.5982C46.4785 17.0956 46.3411 16.6701 46.1863 16.2066C46.0322 15.743 45.8683 15.2922 45.6965 14.8541Z" fill="black"/>
</svg>
