<svg width="110" height="18" viewBox="0 0 110 18" fill="none" xmlns="http://www.w3.org/2000/svg">
<path fill-rule="evenodd" clip-rule="evenodd" d="M78.1177 0.634277C76.8774 0.634277 75.6615 1.08993 74.713 1.95061V0.938046H72.1352V17.1643H74.6887V11.7471C75.6371 12.5825 76.8531 13.0381 78.0933 13.0635C81.1575 13.0635 83.6624 10.2789 83.6624 6.86153C83.6624 3.44413 81.2062 0.634277 78.1177 0.634277ZM94.0709 1.89998V0.938046H96.6244V12.8356H94.0709V11.7724C93.1224 12.5825 91.9308 13.0381 90.6905 13.0381C87.602 13.0381 85.1215 10.2536 85.1215 6.83621C85.1215 3.41882 87.6264 0.634277 90.6905 0.634277C91.9308 0.634277 93.1224 1.08993 94.0709 1.89998ZM87.6265 6.83611C87.6265 8.9878 89.1342 10.7092 90.9825 10.7092C92.8307 10.7092 94.3385 9.01312 94.3385 6.86143C94.3385 4.70973 92.8307 2.98838 90.9825 2.98838C89.1342 2.98838 87.6265 4.68442 87.6265 6.83611ZM74.4697 6.83646C74.4697 8.98815 75.9775 10.7095 77.8257 10.7095C79.674 10.7095 81.1817 8.98815 81.1817 6.83646C81.1817 4.68477 79.674 2.96341 77.8257 2.96341C75.9775 2.96341 74.4697 4.68477 74.4697 6.83646ZM107.495 0.937933L104.212 9.03842L100.71 0.937933H98.1807L102.996 12.0761L100.929 17.1642H103.434L110 0.937933H107.495ZM56.0118 10.4307L55.8902 2.58339H58.2735V12.4812H54.8445L52.4613 4.35537H52.4126L52.5342 12.4812H50.1753V2.58339H53.7502L55.9632 10.4307H56.0118ZM10.6571 2.58339L8.88184 12.5824H11.484L12.7972 3.49469H12.8458L14.1347 12.5824H16.7125L14.9372 2.58339H10.6571ZM23.9839 10.2282L25.1755 2.58339H29.0665L29.2854 12.5824H26.8778L26.8292 3.59595H26.7805L25.1755 12.5824H22.7436L21.1142 3.59595H21.0656L21.0169 12.5824H18.6094L18.8282 2.58339H22.7679L23.9352 10.2282H23.9839ZM4.8448 9.74728C4.91775 10.0004 4.91775 10.2536 4.86911 10.5067C4.79616 10.8358 4.57729 11.1649 3.92068 11.1649C3.3127 11.1649 2.94792 10.8105 2.94792 10.2536V9.26631H0.370117V10.0257C0.370117 12.2534 2.04812 12.9368 3.87204 12.9368C5.623 12.9368 7.0335 12.3293 7.27669 10.6586C7.37396 10.1017 7.37396 9.57008 7.27669 9.01317C7.0399 7.80979 5.74209 7.09635 4.62608 6.48284C3.79356 6.02519 3.06221 5.62314 2.94792 5.11482C2.9236 4.93762 2.9236 4.76042 2.94792 4.58322C3.02088 4.25414 3.21543 3.89974 3.8234 3.89974C4.28546 3.84911 4.67456 4.20351 4.7232 4.65916V5.41858H7.13077V4.70979C7.13077 2.53279 5.25822 2.17839 3.89636 2.17839C2.19404 2.17839 0.783539 2.76061 0.54035 4.40602C0.443074 4.86167 0.443074 5.31733 0.54035 5.77298C0.765383 6.98811 1.99905 7.69522 3.09821 8.32523C3.89958 8.78456 4.62946 9.20291 4.8448 9.74728ZM36.0945 10.4812C36.1431 10.228 36.1431 9.97488 36.0702 9.74705C35.8613 9.19266 35.1188 8.76897 34.3067 8.30559C33.2277 7.68991 32.0259 7.00418 31.7901 5.84869C31.6928 5.39304 31.6928 4.93739 31.7657 4.50705C32.0332 2.88695 33.3951 2.30473 35.0974 2.30473C36.4593 2.30473 38.3075 2.65913 38.3075 4.81082V5.51961H35.9486V4.78551C35.9243 4.32985 35.5108 3.97546 35.0731 4.02609C34.4651 4.02609 34.2706 4.35517 34.1976 4.68425C34.1733 4.86145 34.1733 5.01333 34.1976 5.19053C34.302 5.6903 35.029 6.09215 35.8577 6.55017C36.9599 7.15933 38.2418 7.86785 38.4778 9.03826C38.575 9.56985 38.575 10.1268 38.4778 10.6584C38.2589 12.3038 36.8484 12.9113 35.1217 12.9113C33.3465 12.9113 31.6685 12.2531 31.6685 10.0508V9.2914H34.2219V10.2533C34.2219 10.7849 34.5867 11.1393 35.1704 11.1393C35.8027 11.1393 36.0215 10.8102 36.0945 10.4812ZM44.144 11.0636C44.5817 11.1142 44.9708 10.7851 45.0681 10.3548C45.0924 10.2282 45.0924 10.1016 45.0924 9.97508V2.58339H47.5243V9.74725C47.5243 9.84812 47.5164 10.0146 47.5097 10.158C47.5045 10.2664 47.5 10.3618 47.5 10.4054C47.3298 12.2787 45.9193 12.8862 44.144 12.8862C42.3687 12.8862 40.9582 12.2787 40.788 10.4054C40.788 10.3618 40.7835 10.2666 40.7784 10.1582C40.7716 10.0148 40.7637 9.84812 40.7637 9.74725V2.58339H43.1956V9.97508C43.1956 10.1016 43.1956 10.2282 43.2199 10.3548C43.3172 10.8104 43.7063 11.1142 44.144 11.0636ZM65.1558 10.2537C65.1315 10.5068 64.8883 10.9625 64.1831 10.9625C63.4778 10.9625 63.2346 10.5068 63.2346 10.2537C63.2103 10.1271 63.2103 10.0005 63.2103 9.87397V5.29213C63.2103 5.11496 63.2346 4.96309 63.2589 4.81122C63.3562 4.35557 63.7453 4.02643 64.2074 4.07706C64.9613 4.07706 65.1315 4.58334 65.1801 4.81116C65.2045 4.9377 65.2045 5.06423 65.2045 5.19076V5.74778H67.6363V5.4187C67.6363 5.19088 67.6363 4.98836 67.612 4.76054C67.4175 2.86199 65.934 2.27976 64.2317 2.27976C62.5294 2.27976 61.0702 2.8873 60.8514 4.76054C60.8491 4.78142 60.8469 4.8021 60.8447 4.82259C60.8228 5.02571 60.8027 5.21176 60.8027 5.4187V9.64614C60.8027 9.82334 60.8027 9.97523 60.8271 10.3043C60.9973 12.1269 62.5051 12.7851 64.2074 12.7851C65.9097 12.7851 67.4418 12.1269 67.5877 10.3043C67.612 9.97523 67.612 9.82334 67.612 9.64614V6.96286H64.2074V8.43107H65.1801V9.87397C65.1801 10.0005 65.1801 10.1271 65.1558 10.2537Z" fill="black"/>
</svg>
