<svg width="92" height="23" viewBox="0 0 92 23" fill="none" xmlns="http://www.w3.org/2000/svg">
<path fill-rule="evenodd" clip-rule="evenodd" d="M29.1643 5.19185H34.2302C35.9258 5.19185 37.2028 5.64568 37.9228 6.50374C38.5784 7.28516 38.7954 8.40093 38.5687 9.82102C38.0658 13.0669 36.1399 14.7049 32.8028 14.7049H31.1991C30.8532 14.7049 30.5576 14.9604 30.5043 15.3082L29.9517 18.8622C29.8976 19.2101 29.6028 19.4656 29.2562 19.4656H26.8376C26.5776 19.4656 26.3791 19.2311 26.4199 18.9712L28.4688 5.79445C28.5228 5.44731 28.8176 5.19185 29.1643 5.19185ZM31.8059 11.8482C33.1489 11.8482 34.5378 11.8482 34.8148 10.0043C34.9163 9.35664 34.8348 8.88779 34.5689 8.57222C34.123 8.04326 33.26 8.04326 32.3452 8.04326H31.9948C31.7874 8.04326 31.6096 8.19654 31.5778 8.40466L31.0415 11.8482H31.8059Z" fill="black"/>
<path fill-rule="evenodd" clip-rule="evenodd" d="M46.9475 9.94514H49.3735C49.6327 9.94514 49.8305 10.1803 49.789 10.4395L48.4779 18.8616C48.4231 19.2095 48.1298 19.465 47.7823 19.465H45.5972C45.3386 19.465 45.1401 19.2305 45.1809 18.9691L45.289 18.2853C45.289 18.2853 44.0912 19.6941 41.9312 19.6941C40.6727 19.6941 39.6149 19.3259 38.8757 18.4423C38.0698 17.4813 37.7401 16.1033 37.972 14.6622C38.4179 11.7732 40.7075 9.71372 43.3883 9.71372C44.5572 9.71372 45.7283 9.97219 46.2535 10.7453L46.4231 10.9948L46.5305 10.3066C46.5623 10.0984 46.7409 9.94514 46.9475 9.94514ZM43.255 17.0835C44.658 17.0835 45.758 16.1398 45.992 14.734C46.098 14.0532 45.9513 13.4356 45.5817 12.9931C45.2128 12.555 44.6528 12.3228 43.9639 12.3228C42.5824 12.3228 41.4639 13.2974 41.2454 14.6911C41.1313 15.3749 41.2676 15.9887 41.6261 16.42C41.9876 16.8543 42.5506 17.0835 43.255 17.0835Z" fill="black"/>
<path d="M62.2934 9.94493H59.8556C59.623 9.94493 59.4045 10.0621 59.2727 10.2583L55.9104 15.2819L54.4852 10.4544C54.3956 10.1523 54.1208 9.94493 53.8097 9.94493H51.4141C51.123 9.94493 50.9208 10.2335 51.0134 10.5115L53.6986 18.5045L51.1741 22.1193C50.9756 22.4041 51.1756 22.7955 51.5186 22.7955H53.9534C54.1845 22.7955 54.4008 22.6813 54.5319 22.489L62.6401 10.6174C62.8341 10.3334 62.6349 9.94493 62.2934 9.94493Z" fill="black"/>
<path fill-rule="evenodd" clip-rule="evenodd" d="M65.2978 5.19185H70.3645C72.0601 5.19185 73.3364 5.64568 74.0556 6.50374C74.7112 7.28516 74.9297 8.40093 74.7023 9.82102C74.1986 13.0669 72.2734 14.7049 68.9356 14.7049H67.3327C66.9867 14.7049 66.6912 14.9604 66.6378 15.3082L66.0564 19.0433C66.0186 19.2867 65.8119 19.4656 65.5704 19.4656H62.9704C62.7119 19.4656 62.5134 19.2311 62.5541 18.9712L64.603 5.79445C64.6571 5.44731 64.9519 5.19185 65.2978 5.19185ZM67.94 11.8482C69.2837 11.8482 70.6726 11.8482 70.9489 10.0043C71.0503 9.35664 70.9696 8.88779 70.7037 8.57222C70.2577 8.04326 69.394 8.04326 68.48 8.04326H68.1296C67.9214 8.04326 67.7451 8.19654 67.7133 8.40466L67.1763 11.8482H67.94Z" fill="black"/>
<path fill-rule="evenodd" clip-rule="evenodd" d="M83.0821 9.94514H85.5065C85.7665 9.94514 85.965 10.1803 85.925 10.4395L84.6132 18.8616C84.5591 19.2095 84.2643 19.465 83.9184 19.465H81.7339C81.4739 19.465 81.2754 19.2305 81.3161 18.9691L81.4243 18.2853C81.4243 18.2853 80.2265 19.6941 78.0665 19.6941C76.808 19.6941 75.7517 19.3259 75.011 18.4423C74.205 17.4813 73.8769 16.1033 74.108 14.6622C74.5539 11.7732 76.8428 9.71372 79.5236 9.71372C80.6925 9.71372 81.8628 9.97219 82.388 10.7453L82.5584 10.9948L82.6658 10.3066C82.6969 10.0984 82.8739 9.94514 83.0821 9.94514ZM79.3882 17.0835C80.7911 17.0835 81.8926 16.1398 82.1252 14.734C82.2326 14.0532 82.086 13.4356 81.7148 12.9931C81.346 12.555 80.786 12.3228 80.0971 12.3228C78.7156 12.3228 77.5985 13.2974 77.3785 14.6911C77.266 15.3749 77.4008 15.9887 77.7593 16.42C78.1208 16.8543 78.6852 17.0835 79.3882 17.0835Z" fill="black"/>
<path d="M88.3668 5.55301L86.2875 18.9709C86.2468 19.2309 86.4453 19.4653 86.7038 19.4653H88.7942C89.1416 19.4653 89.4364 19.2098 89.4898 18.862L91.5401 5.686C91.5809 5.42603 91.3824 5.19085 91.1238 5.19085H88.7831C88.5764 5.1916 88.3987 5.34488 88.3668 5.55301Z" fill="black"/>
<path d="M5.38242 22.0261L5.76983 19.5301L4.90687 19.5098H0.786125L3.64983 1.09157C3.65872 1.03597 3.68761 0.984124 3.72983 0.947307C3.77205 0.91049 3.82612 0.890203 3.88242 0.890203H10.8306C13.1372 0.890203 14.7291 1.37709 15.5602 2.33809C15.9498 2.78891 16.198 3.26001 16.318 3.77845C16.4439 4.32244 16.4461 4.97238 16.3232 5.76507L16.3143 5.82292V6.33085L16.7039 6.55475C17.0321 6.73132 17.2928 6.93344 17.4928 7.16486C17.8261 7.55031 18.0417 8.0402 18.1328 8.62101C18.2269 9.21834 18.1958 9.92914 18.0417 10.7338C17.8639 11.6595 17.5765 12.4657 17.1883 13.1254C16.8313 13.7333 16.3765 14.2375 15.8365 14.6282C15.3209 14.9994 14.7083 15.2811 14.0158 15.4614C13.3446 15.6388 12.5795 15.7282 11.7402 15.7282H11.1995C10.8128 15.7282 10.4372 15.8694 10.1424 16.1226C9.84687 16.3811 9.65131 16.7343 9.59131 17.1205L9.55057 17.3451L8.86612 21.7444L8.83501 21.9059C8.82687 21.957 8.81279 21.9826 8.79205 21.9998C8.77353 22.0156 8.74687 22.0261 8.72094 22.0261H5.38242Z" fill="black"/>
<path d="M17.0726 5.88099C17.0519 6.01549 17.0282 6.15299 17.0015 6.29424C16.0852 11.0662 12.9504 12.7147 8.94669 12.7147H6.90817C6.41854 12.7147 6.00595 13.0753 5.92966 13.5652L4.88595 20.2794L4.5904 22.1826C4.54077 22.5042 4.78521 22.7942 5.10521 22.7942H8.72077C9.14891 22.7942 9.51262 22.4787 9.58003 22.0504L9.61558 21.8641L10.2963 17.4821L10.34 17.2416C10.4067 16.8119 10.7711 16.4963 11.1993 16.4963H11.74C15.243 16.4963 17.9852 15.0537 18.7867 10.8791C19.1215 9.13516 18.9482 7.67901 18.0622 6.6549C17.7941 6.34609 17.4615 6.08987 17.0726 5.88099Z" fill="black"/>
<path d="M16.1141 5.4935C15.9741 5.45217 15.8297 5.4146 15.6815 5.38079C15.5326 5.34773 15.38 5.31843 15.223 5.29288C14.6734 5.20272 14.0712 5.15989 13.426 5.15989H7.98005C7.84598 5.15989 7.71857 5.1907 7.60449 5.2463C7.35338 5.36877 7.16672 5.60996 7.12153 5.90524L5.96301 13.3483L5.92966 13.5652C6.00595 13.0753 6.41854 12.7147 6.90817 12.7147H8.94669C12.9504 12.7147 16.0852 11.0662 17.0015 6.29424C17.0282 6.15299 17.0519 6.01549 17.0726 5.88099C16.8408 5.75627 16.5897 5.64978 16.3193 5.55887C16.2526 5.53632 16.1838 5.51453 16.1141 5.4935Z" fill="black"/>
<path d="M7.12153 5.90524C7.16672 5.60996 7.35338 5.36877 7.60449 5.2463C7.71857 5.1907 7.84598 5.15989 7.98005 5.15989H13.426C14.0712 5.15989 14.6734 5.20272 15.223 5.29288C15.38 5.31843 15.5326 5.34773 15.6815 5.38079C15.8297 5.4146 15.9741 5.45217 16.1141 5.4935C16.1838 5.51453 16.2519 5.53708 16.3193 5.55887C16.5897 5.64978 16.8408 5.75627 17.0726 5.88099C17.3452 4.11754 17.0711 2.91719 16.1311 1.82996C15.0948 0.633037 13.2244 0.120605 10.8311 0.120605H3.88295C3.39407 0.120605 2.97703 0.481261 2.90147 0.971903L0.00739913 19.5795C-0.0496379 19.9477 0.230362 20.2798 0.596288 20.2798L4.88595 20.2794L5.96301 13.3483L7.12153 5.90524Z" fill="black"/>
</svg>
