<svg width="45" height="45" viewBox="0 0 45 45" fill="none" xmlns="http://www.w3.org/2000/svg">
<path fill-rule="evenodd" clip-rule="evenodd" d="M0.419922 22.5C0.419922 10.0735 10.2034 0 22.2718 0C34.3403 0 44.1236 10.0735 44.1236 22.5C44.1236 34.9264 34.3403 45 22.2718 45C10.2034 45 0.419922 34.9264 0.419922 22.5ZM37.2271 7.10064C33.2323 2.98731 27.9211 0.722101 22.2716 0.722101C16.6221 0.722101 11.3108 2.98731 7.31601 7.10064C3.32113 11.214 1.12109 16.6827 1.12109 22.4998C1.12109 28.3169 3.32113 33.7859 7.31601 37.899C11.3108 42.0123 16.6221 44.2775 22.2716 44.2775C27.9211 44.2775 33.2323 42.0123 37.2271 37.899C41.222 33.7859 43.4219 28.3169 43.4219 22.4998C43.4219 16.6827 41.222 11.2138 37.2271 7.10064Z" fill="black"/>
<path fill-rule="evenodd" clip-rule="evenodd" d="M17.7892 12.7083C17.7892 12.7552 17.7904 12.8018 17.7921 12.8485H26.7597V12.3556C26.7468 12.2158 26.7263 12.0779 26.6984 11.9423C26.4526 10.7433 25.6402 9.72746 24.5258 9.13767L25.2113 7.83559C25.2538 7.75475 25.2246 7.65392 25.1463 7.61017C25.068 7.56642 24.9701 7.59642 24.9276 7.67705L24.2332 8.996C23.6434 8.73475 22.9818 8.58829 22.2827 8.58829C21.5784 8.58829 20.9119 8.73684 20.3187 9.00184L19.6214 7.67705C19.579 7.59642 19.4809 7.56642 19.4026 7.61017C19.3243 7.65392 19.2951 7.75475 19.3377 7.83559L20.0269 9.14475C18.9645 9.71121 18.1786 10.6656 17.8998 11.7962C17.8275 12.0895 17.7892 12.3948 17.7892 12.7083ZM20.2306 11.2125C19.9975 11.2125 19.8086 11.0179 19.8086 10.7779C19.8086 10.5379 19.9975 10.3433 20.2306 10.3433C20.4636 10.3433 20.6527 10.5379 20.6527 10.7779C20.6527 11.0179 20.4636 11.2125 20.2306 11.2125ZM17.7808 13.2068H26.768V19.9474C26.768 20.5097 26.3212 20.9699 25.7749 20.9699H24.9405V23.3193C24.9401 23.8836 24.4958 24.3413 23.9475 24.3413C23.3991 24.3413 22.9542 23.8836 22.9542 23.3193V20.9699H21.6162V23.3193C21.616 23.8836 21.1715 24.3413 20.6232 24.3413C20.0749 24.3413 19.6302 23.8836 19.6302 23.3193V20.9699H18.7739C18.2276 20.9699 17.7808 20.5097 17.7808 19.9474V13.2068ZM23.8965 10.7779C23.8965 11.0179 24.0855 11.2125 24.3185 11.2125C24.5516 11.2125 24.7406 11.0179 24.7406 10.7779C24.7406 10.5379 24.5516 10.3433 24.3185 10.3433C24.0855 10.3433 23.8965 10.5379 23.8965 10.7779ZM29.1048 14.0501C29.1048 13.4857 28.66 13.028 28.1117 13.028C27.5634 13.028 27.1189 13.4857 27.1187 14.0501V18.3451C27.1187 18.9097 27.5634 19.3674 28.1117 19.3674C28.66 19.3674 29.1045 18.9097 29.1048 18.3451V14.0501ZM17.4251 18.3451V14.0501C17.4249 13.4857 16.9803 13.028 16.432 13.028C15.8837 13.028 15.439 13.4857 15.439 14.0501V18.3451C15.4392 18.9097 15.8837 19.3674 16.432 19.3674C16.9803 19.3674 17.4251 18.9097 17.4251 18.3451Z" fill="black"/>
<path fill-rule="evenodd" clip-rule="evenodd" d="M12.2762 36.7591V33.5265C12.9133 34.1825 13.7929 34.5806 14.7939 34.5806C16.9552 34.5806 18.669 32.7612 18.669 30.5204C18.669 28.2714 16.9552 26.4521 14.7939 26.4521C13.7929 26.4521 12.9133 26.8504 12.2762 27.4986V26.6083H11.1387V36.7591H12.2762ZM26.9654 34.4166V26.6083H25.8279V27.4986C25.1907 26.8425 24.3112 26.4521 23.31 26.4521C21.1412 26.4521 19.435 28.2637 19.435 30.5046C19.435 32.7535 21.1412 34.5728 23.31 34.5728C24.3112 34.5728 25.1907 34.1746 25.8279 33.5265V34.4166H26.9654ZM35.239 26.6008H33.9575L31.4588 32.7626L28.9676 26.6088H27.6479L30.795 34.1282L30.5447 34.7138C30.2643 35.3619 29.7334 35.6429 29.2253 35.6429H28.8081V36.8221H29.2102C30.34 36.8221 31.2349 36.1975 31.7126 35.0106L35.239 26.6008ZM20.5801 30.5049C20.5801 32.1213 21.8389 33.4332 23.3936 33.4332C24.3642 33.4332 25.2362 32.9334 25.7445 32.1526C25.7746 32.1136 25.8201 32.0276 25.8279 31.8869V29.115C25.8279 29.0018 25.7891 28.9283 25.7637 28.88C25.7593 28.8717 25.7553 28.8642 25.752 28.8573C25.2818 28.0532 24.3642 27.5846 23.3936 27.5846C21.8389 27.5846 20.5801 28.8965 20.5801 30.5049ZM12.3522 32.168C12.8375 32.9644 13.74 33.4407 14.7107 33.4407C16.2577 33.4407 17.5165 32.1287 17.5165 30.5204C17.5165 28.904 16.2577 27.5921 14.7107 27.5921C13.74 27.5921 12.8679 28.0686 12.3597 28.8494C12.3294 28.8883 12.284 28.9742 12.2764 29.1071V31.9102C12.2764 32.043 12.3219 32.1211 12.3522 32.168Z" fill="black"/>
</svg>
